<!-- Uploaded to: SVG Repo, www.svgrepo.com, Generator: SVG Repo Mixer Tools -->
<svg height="800px" width="800px" version="1.1" id="Layer_1" xmlns="http://www.w3.org/2000/svg" xmlns:xlink="http://www.w3.org/1999/xlink" 
	 viewBox="0 0 512.002 512.002" xml:space="preserve">
<circle style="fill:#F2F2F2;" cx="256.001" cy="256.025" r="247.111"/>
<circle style="fill:#E6E6E6;" cx="256.001" cy="256.025" r="159.581"/>
<ellipse transform="matrix(0.8804 -0.4743 0.4743 0.8804 -70.9938 201.6222)" style="fill:#C4A174;" cx="364.184" cy="241.544" rx="79.372" ry="97.75"/>
<path style="fill:#B58E64;" d="M324.356,279.173c-25.604-47.522-15.075-102.902,23.515-123.693
	c5.482-2.954,11.241-5.021,17.152-6.308c-16.213-3.323-32.649-1.519-47.177,6.308c-38.59,20.792-49.118,76.171-23.515,123.693
	c21.966,40.772,63.386,62.485,99.082,54.71C366.561,328.378,340.32,308.803,324.356,279.173z"/>
<path style="fill:#F2F2F2;" d="M343.914,146.817l0.071,1.007c-9.067,0.723-17.909,3.224-26.135,7.657
	c-8.237,4.433-15.195,10.442-20.801,17.625l-0.77-0.616l-18.999-35.261c0.889-0.379,1.766-0.806,2.631-1.268
	c8.368-4.504,14.021-12.066,16.345-20.552c8.368,2.726,17.79,2.157,26.146-2.347c0.865-0.462,1.707-0.972,2.513-1.505v0.012
	L343.914,146.817z"/>
<path style="fill:#FFFFFF;" d="M335.961,67.856c8.273,15.361,3.271,34.313-11.046,43.7c-0.806,0.533-1.648,1.043-2.513,1.505
	c-8.356,4.504-17.779,5.073-26.146,2.347c-2.323,8.486-7.977,16.048-16.345,20.552c-0.865,0.462-1.742,0.889-2.631,1.268
	c-15.728,6.791-34.289,0.545-42.574-14.816c-8.735-16.226-2.667-36.47,13.547-45.217c8.368-4.504,17.79-5.061,26.158-2.347
	c2.323-8.486,7.977-16.036,16.344-20.54C306.97,45.561,327.214,51.63,335.961,67.856z"/>
<path style="fill:#F4C67D;" d="M210.251,337.191c-0.012-7.396,2.9-14.413,8.146-19.628c0.031-0.031,0.062-0.06,0.091-0.091
	c12.899-12.899,15.6-32.13,8.111-47.685c-1.838-3.818-1.099-8.313,1.908-11.299c0.04-0.04,0.082-0.081,0.122-0.122
	c19.122-19.122,19.122-50.124,0-69.245c-5.055-5.055-10.939-8.771-17.214-11.151c-15.059-5.71-29.004-14.057-40.326-25.51
	c-0.312-0.315-0.629-0.628-0.951-0.936c-18.452-17.694-47.94-18.089-66.828-0.86c-10.508,9.585-15.841,22.566-16.002,35.6
	c-0.104,8.425-4.313,16.282-11.118,21.25c-1.723,1.259-3.372,2.666-4.928,4.222c-17.617,17.617-13.194,36.322-7.411,47.86
	c3.418,6.821,3.73,14.835,0.392,21.696c-5.821,11.965-9.739,33.022,14.168,56.93c9.711,9.711,22.483,14.484,35.208,14.33
	c8.514-0.103,16.598,3.59,21.82,10.314c1.928,2.483,4.178,4.798,6.749,6.89c15.262,12.411,37.55,12.353,52.735-0.151
	C205.164,361.174,210.27,349.179,210.251,337.191z"/>
<path style="fill:#E0B16E;" d="M180.118,369.754c-2.572-2.091-4.82-4.407-6.749-6.89c-5.222-6.724-13.308-10.418-21.821-10.314
	c-12.725,0.155-25.498-4.619-35.208-14.33c-23.908-23.908-19.989-44.966-14.167-56.93c3.338-6.86,3.027-14.875-0.392-21.696
	c-5.783-11.537-10.207-30.241,7.411-47.86c1.556-1.556,3.205-2.963,4.928-4.222c6.804-4.969,11.013-12.826,11.118-21.25
	c0.161-13.033,5.494-26.014,16.002-35.599c4.209-3.839,8.945-6.797,13.967-8.889c-17.095-7.104-37.55-4.196-51.895,8.889
	c-10.508,9.585-15.841,22.566-16.002,35.599c-0.104,8.425-4.313,16.282-11.118,21.25c-1.723,1.259-3.372,2.666-4.928,4.222
	c-17.617,17.617-13.194,36.323-7.411,47.86c3.418,6.821,3.73,14.835,0.392,21.696c-5.821,11.965-9.739,33.022,14.167,56.93
	c9.711,9.711,22.483,14.484,35.208,14.33c8.514-0.103,16.598,3.59,21.821,10.314c1.928,2.483,4.178,4.798,6.749,6.89
	c12.906,10.495,30.834,12.072,45.245,4.748C184.869,373.199,182.412,371.62,180.118,369.754z"/>
<path d="M437.02,74.981C388.668,26.629,324.381,0.001,256.001,0.001S123.334,26.629,74.981,74.981
	C26.629,123.333,0,187.621,0,256.001s26.629,132.668,74.981,181.02c48.353,48.352,112.64,74.981,181.021,74.981
	c68.379,0,132.668-26.629,181.02-74.981s74.981-112.64,74.981-181.02S485.372,123.333,437.02,74.981z M424.447,424.449
	c-92.882,92.882-244.013,92.882-336.895,0c-92.883-92.883-92.883-244.014,0-336.896C134,41.106,194.99,17.892,256.001,17.892
	c60.996,0,122.011,23.226,168.447,69.661c44.995,44.994,69.774,104.817,69.774,168.448S469.443,379.455,424.447,424.449z"/>
<path d="M179.312,125.792c1.453,0,2.926-0.357,4.288-1.109c7.037-3.884,14.448-7.222,22.034-9.92
	c4.625-1.645,7.039-6.73,5.395-11.355c-1.646-4.626-6.732-7.042-11.356-5.395c-8.489,3.02-16.788,6.757-24.666,11.106
	c-4.298,2.373-5.857,7.78-3.486,12.079C173.143,124.132,176.18,125.792,179.312,125.792z"/>
<path d="M362.005,362.006c-21.537,21.537-48.686,35.846-78.512,41.382c-29.142,5.407-58.914,2.173-86.094-9.355
	c-4.516-1.914-9.737,0.192-11.654,4.713c-1.918,4.519,0.192,9.738,4.713,11.654c20.833,8.836,43.023,13.316,65.412,13.316
	c10.284,0,20.611-0.946,30.867-2.848c33.374-6.193,63.748-22.2,87.84-46.29c3.472-3.472,3.472-9.099,0-12.571
	C371.105,358.534,365.478,358.533,362.005,362.006z"/>
<path d="M441.902,199.646c-20.015-37.172-56.437-60.982-92.257-60.955l-13.436-24.927c13.044-12.903,16.551-33.488,7.576-50.152
	c-5.357-9.937-14.262-17.194-25.074-20.436c-10.817-3.24-22.242-2.075-32.169,3.278c-7.741,4.167-13.826,10.442-17.671,18.097
	c-8.518-0.994-17.104,0.629-24.839,4.793c-20.501,11.06-28.196,36.744-17.152,57.26c7.631,14.151,21.989,22.273,37.051,22.273
	c2.992,0,6.01-0.331,9.009-0.988l13.409,24.884c-19.712,29.893-19.869,73.428,0.16,110.589
	c20.583,38.203,57.32,60.919,92.378,60.919c12.44,0,24.67-2.861,35.89-8.905c7.669-4.133,14.52-9.559,20.367-16.126
	c3.265-3.667,2.938-9.285-0.728-12.551c-3.667-3.265-9.285-2.937-12.551,0.729c-4.465,5.015-9.687,9.152-15.522,12.297
	c-34.21,18.429-80.947-1.668-104.184-44.797c-17.92-33.245-17.159-71.977,1.896-96.379c4.98-6.38,11.038-11.517,18.01-15.269
	c6.961-3.751,14.574-5.978,22.638-6.622c30.866-2.508,63.633,18.159,81.546,51.418c13.953,25.896,16.794,55.589,7.6,79.428
	c-1.767,4.581,0.514,9.726,5.094,11.493s9.726-0.514,11.492-5.095C461.474,265.286,458.282,230.049,441.902,199.646z
	 M242.533,118.173c-6.398-11.887-1.94-26.771,9.934-33.176c3.623-1.95,7.574-2.938,11.564-2.938c2.554,0,5.125,0.404,7.639,1.22
	c2.306,0.749,4.825,0.522,6.965-0.633c2.138-1.154,3.71-3.133,4.351-5.476c1.783-6.512,6.039-11.86,11.991-15.064
	c5.753-3.102,12.367-3.777,18.631-1.9c6.265,1.877,11.426,6.083,14.527,11.839c5.97,11.082,2.414,25.162-8.126,32.073
	c-0.615,0.408-1.218,0.769-1.824,1.093c-5.94,3.201-12.747,3.813-19.175,1.72c-2.314-0.754-4.831-0.526-6.972,0.627
	c-2.141,1.153-3.715,3.133-4.356,5.478c-1.786,6.52-6.041,11.873-11.964,15.061c-0.666,0.356-1.313,0.668-1.927,0.93
	c-0.012,0.005-0.024,0.011-0.034,0.015C262.028,134.106,248.605,129.43,242.533,118.173z M313.637,147.627
	c-5.418,2.916-10.399,6.479-14.922,10.616l-9.534-17.693c5.35-3.926,9.649-8.992,12.612-14.891
	c6.558,0.769,13.155-0.037,19.368-2.343l9.541,17.702C324.764,142.513,319.051,144.71,313.637,147.627z"/>
<path d="M219.141,337.151c-0.008-5.034,1.953-9.76,5.454-13.239l0.179-0.179c15.214-15.211,19.167-38.45,9.835-57.829
	c-0.095-0.198-0.27-0.704,0.096-1.067l0.212-0.21c22.555-22.556,22.555-59.26,0-81.817c-5.837-5.836-12.683-10.27-20.349-13.178
	c-14.836-5.626-27.336-13.515-37.151-23.443c-0.371-0.376-0.748-0.747-1.125-1.108c-8.457-8.109-19.087-13.386-30.743-15.26
	c-4.852-0.782-9.408,2.519-10.188,7.365c-0.779,4.848,2.519,9.408,7.366,10.187c8.072,1.298,15.422,4.942,21.264,10.545
	c0.262,0.25,0.519,0.504,0.775,0.764c11.626,11.759,26.259,21.036,43.496,27.572c5.298,2.009,10.035,5.079,14.081,9.125
	c15.626,15.625,15.626,41.05,0,56.675l-0.101,0.1c-5.66,5.622-7.128,14.248-3.653,21.462c6.057,12.579,3.489,27.666-6.46,37.615
	c-6.96,6.918-10.785,16.132-10.769,25.946c0.015,9.891-4.39,19.199-12.087,25.536c-11.982,9.867-29.427,9.915-41.476,0.116
	c-1.995-1.623-3.79-3.454-5.337-5.445c-6.801-8.758-17.16-13.754-28.48-13.754c-0.156,0-0.314,0.001-0.469,0.002
	c-10.92,0.134-21.12-4.032-28.814-11.727c-10.805-10.805-21.737-27.687-12.46-46.755c4.503-9.253,4.343-20.031-0.439-29.568
	c-7.053-14.075-5.119-26.721,5.752-37.592c1.207-1.208,2.513-2.327,3.883-3.327c9.109-6.65,14.627-17.237,14.763-28.319
	c0.14-11.211,4.794-21.561,13.105-29.142c3.041-2.775,6.482-5.046,10.225-6.749c4.47-2.034,6.443-7.305,4.409-11.773
	c-2.033-4.468-7.303-6.444-11.773-4.409c-5.434,2.472-10.429,5.769-14.843,9.796c-11.986,10.935-18.698,25.87-18.899,42.056
	c-0.069,5.514-2.861,10.815-7.472,14.181c-2.11,1.541-4.12,3.262-5.972,5.115c-16.412,16.412-19.634,37.057-9.072,58.129
	c2.282,4.549,2.407,9.587,0.346,13.822c-6.262,12.871-12.526,38.704,15.875,67.105c10.939,10.94,25.428,16.937,40.874,16.937
	c0.242,0,0.486-0.001,0.727-0.005c5.917-0.096,11.242,2.436,14.692,6.878c2.374,3.057,5.12,5.861,8.162,8.333
	c9.256,7.526,20.572,11.287,31.887,11.286c11.413,0,22.823-3.826,32.108-11.471C212.397,366.706,219.163,352.386,219.141,337.151z"
	/>
<path d="M139.912,210.343c1.847-1.847,4.301-2.864,6.914-2.864s5.067,1.017,6.914,2.864c1.736,1.736,4.011,2.604,6.287,2.604
	c2.274,0,4.55-0.868,6.285-2.604c3.473-3.472,3.473-9.1,0.001-12.572c-5.206-5.204-12.125-8.072-19.485-8.072
	s-14.281,2.866-19.485,8.072c-3.472,3.472-3.472,9.1,0.001,12.572C130.811,213.815,136.439,213.815,139.912,210.343z"/>
<path d="M152.531,260.78c-8.685-0.811-17.173,1.809-23.891,7.378c-6.717,5.569-10.864,13.422-11.676,22.111
	c-0.456,4.888,3.136,9.221,8.025,9.677c0.281,0.026,0.561,0.039,0.837,0.039c4.536,0,8.41-3.456,8.841-8.063
	c0.37-3.96,2.259-7.539,5.321-10.077c3.063-2.54,6.934-3.734,10.89-3.364c4.892,0.46,9.22-3.136,9.678-8.024
	C161.013,265.57,157.419,261.236,152.531,260.78z"/>
<circle cx="378.14" cy="267.96" r="8.889"/>
<circle cx="408.304" cy="264.606" r="8.889"/>
<circle cx="398.253" cy="291.428" r="8.889"/>
</svg>