<!-- Uploaded to: SVG Repo, www.svgrepo.com, Generator: SVG Repo Mixer Tools -->
<svg height="800px" width="800px" version="1.1" id="Layer_1" xmlns="http://www.w3.org/2000/svg" xmlns:xlink="http://www.w3.org/1999/xlink" 
	 viewBox="0 0 512.002 512.002" xml:space="preserve">
<circle style="fill:#F2F2F2;" cx="256.001" cy="256.025" r="247.111"/>
<circle style="fill:#E6E6E6;" cx="256.001" cy="256.025" r="159.581"/>
<path style="fill:#F4C67D;" d="M396.082,115.946h-38.27c-85.9,0-155.536,69.635-155.536,155.536v38.27h38.27
	c85.9,0,155.536-69.635,155.536-155.536V115.946z"/>
<g>
	<path style="fill:#E0B16E;" d="M385.467,115.946h-27.655c-85.9,0-155.536,69.635-155.536,155.536v38.27h27.655v-38.27
		C229.931,185.581,299.568,115.946,385.467,115.946z"/>
	<path style="fill:#E0B16E;" d="M202.274,309.752v38.273c0,29.841-8.399,57.711-22.979,81.38l-0.001-0.005
		c-8.017-49.695-46.978-88.66-96.673-96.68l0,0c23.67-14.569,51.539-22.969,81.38-22.969h38.274V309.752z"/>
</g>
<path style="fill:#F4C67D;" d="M272.063,141.711c0,0-65.184-0.268-106.532,41.081c0,0,34.322,4.134,51.88,21.691"/>
<circle style="fill:#4D4D4D;" cx="321.082" cy="180.039" r="20.884"/>
<path d="M437.02,74.981C388.668,26.629,324.381,0.001,256.001,0.001c-33.759,0-66.572,6.471-97.523,19.233
	c-4.538,1.871-6.7,7.068-4.829,11.606s7.069,6.703,11.607,4.83c28.791-11.87,59.323-17.89,90.745-17.89
	c131.356,0,238.221,106.866,238.221,238.222S387.356,494.223,256.001,494.223S17.779,387.357,17.779,256.001
	c0-42.72,11.436-84.619,33.073-121.17c21.014-35.5,51.034-65.11,86.811-85.629c4.259-2.443,5.731-7.875,3.288-12.133
	s-7.874-5.731-12.133-3.289C90.38,55.824,58.129,87.636,35.553,125.775C12.293,165.066,0,210.097,0,256.001
	c0,68.38,26.629,132.668,74.982,181.02c48.352,48.352,112.638,74.981,181.02,74.981s132.668-26.629,181.02-74.981
	s74.981-112.64,74.981-181.02C512,187.621,485.372,123.333,437.02,74.981z"/>
<path d="M420.286,289.788c2.26-11.044,3.406-22.412,3.406-33.787c0-14.414-1.832-28.729-5.447-42.548
	c-1.243-4.749-6.1-7.595-10.849-6.351c-4.75,1.242-7.593,6.099-6.351,10.85c3.231,12.351,4.868,25.153,4.868,38.05
	c0,10.181-1.024,20.348-3.045,30.223c-0.985,4.81,2.117,9.507,6.927,10.492c0.602,0.123,1.201,0.183,1.792,0.183
	C415.72,296.897,419.424,293.996,420.286,289.788z"/>
<path d="M407.049,305.96c-4.564-1.8-9.728,0.441-11.531,5.009c-10.914,27.679-29.662,51.307-54.217,68.328
	c-25.118,17.412-54.615,26.617-85.301,26.617c-11.627,0-23.202-1.333-34.408-3.966c-4.777-1.119-9.564,1.842-10.687,6.622
	c-1.121,4.779,1.843,9.564,6.622,10.686c12.536,2.944,25.48,4.436,38.473,4.436c34.322,0,67.322-10.299,95.43-29.784
	c27.454-19.031,48.42-45.456,60.628-76.417C413.86,312.924,411.616,307.761,407.049,305.96z"/>
<path d="M292.581,92.312c-11.937-2.656-24.244-4.003-36.579-4.003c-92.467,0-167.692,75.226-167.692,167.692
	c0,12.981,1.491,25.915,4.429,38.443c0.961,4.097,4.613,6.861,8.646,6.861c0.672,0,1.356-0.077,2.039-0.237
	c4.78-1.121,7.746-5.905,6.624-10.685c-2.628-11.199-3.96-22.767-3.96-34.383c0-82.662,67.251-149.913,149.913-149.913
	c11.038,0,22.047,1.204,32.717,3.579c4.791,1.067,9.541-1.953,10.608-6.746C300.393,98.128,297.373,93.379,292.581,92.312z"/>
<path d="M396.083,107.03h-38.271c-32.499,0-62.825,9.48-88.362,25.817c-13.174,0.425-71.049,4.479-110.204,43.632
	c-2.405,2.406-3.227,5.974-2.116,9.189c1.112,3.216,3.961,5.515,7.339,5.921c7.754,0.934,28.73,5.399,42.133,15.3
	c-8.501,19.833-13.215,41.658-13.215,64.565v29.382h-23.46c-4.91,0-8.889,3.98-8.889,8.889c0,4.909,3.979,8.889,8.889,8.889h23.457
	v29.385c0,19.603-3.892,38.861-11.376,56.703c-12.681-34.694-40.035-62.049-74.731-74.726c10.369-4.358,21.21-7.49,32.42-9.359
	c4.842-0.807,8.114-5.387,7.307-10.23c-0.808-4.842-5.375-8.117-10.231-7.307c-20.93,3.488-40.718,10.904-58.814,22.043
	c-3.163,1.947-4.782,5.656-4.059,9.299c0.722,3.643,3.635,6.454,7.302,7.046c46,7.424,81.893,43.319,89.314,89.32
	c0.033,0.209,0.075,0.42,0.123,0.625c0.824,3.504,3.679,6.164,7.234,6.739c0.475,0.077,0.951,0.115,1.422,0.115
	c3.05,0,5.932-1.574,7.567-4.228c15.896-25.807,24.3-55.561,24.3-86.043v-29.385h29.383c90.664,0,164.426-73.761,164.426-164.425
	v-38.27C404.973,111.01,400.993,107.03,396.083,107.03z M185.078,177.83c18.964-13.607,40.765-20.418,57.797-23.832
	c-11.068,10.833-20.616,23.209-28.291,36.782C205.148,184.468,194.163,180.387,185.078,177.83z M387.194,154.19
	c0,80.861-65.786,146.647-146.648,146.647h-29.381v-29.381c0-80.861,65.786-146.647,146.647-146.647h29.382V154.19z"/>
<path d="M300.028,158.956c-11.608,11.608-11.608,30.497,0,42.106c5.804,5.805,13.428,8.707,21.053,8.707
	c7.624,0,15.249-2.903,21.053-8.706h0.001c11.608-11.608,11.608-30.497-0.001-42.106
	C330.524,147.348,311.637,147.348,300.028,158.956z M329.564,188.491c-4.676,4.677-12.285,4.678-16.964,0
	c-4.677-4.677-4.677-12.286,0-16.963c2.338-2.339,5.408-3.507,8.48-3.507c3.072,0,6.144,1.169,8.482,3.507
	C334.24,176.204,334.24,183.814,329.564,188.491z"/>
</svg>