<!-- Uploaded to: SVG Repo, www.svgrepo.com, Generator: SVG Repo Mixer Tools -->
<svg height="800px" width="800px" version="1.1" id="Layer_1" xmlns="http://www.w3.org/2000/svg" xmlns:xlink="http://www.w3.org/1999/xlink" 
	 viewBox="0 0 512.001 512.001" xml:space="preserve">
<circle style="fill:#F2F2F2;" cx="255.997" cy="256.02" r="247.119"/>
<circle style="fill:#E6E6E6;" cx="255.997" cy="256.02" r="159.586"/>
<path style="fill:#F4C67D;" d="M440.35,440.371c-20.114-77.942-106.855-212.453-142.055-247.653s-86.741,18.857-86.741,18.857
	s-54.056,51.542-18.857,86.741C227.898,333.515,362.409,420.257,440.35,440.371z"/>
<g>
	<path style="fill:#E0B16E;" d="M222.933,268.074c35.2,35.2,156.033,135.616,217.417,172.292
		c-77.938-20.106-212.456-106.852-247.657-142.052c-33.29-33.29,13.283-81.223,18.413-86.302
		C207.989,215.23,190.681,235.823,222.933,268.074z"/>
	<path style="fill:#E0B16E;" d="M211.106,212.012c0.294-0.294,0.453-0.436,0.453-0.436S211.392,211.728,211.106,212.012z"/>
	<path style="fill:#E0B16E;" d="M211.995,211.123c-0.284,0.284-0.436,0.453-0.436,0.453S211.701,211.417,211.995,211.123z"/>
</g>
<g>
	<path style="fill:#BADB82;" d="M250.432,184.939v0.012c-21.477,8.38-38.877,26.621-38.877,26.621s-0.012-0.012-0.036-0.036
		c-0.96-1.09-25.235-28.767-36.116-68.284c-6.673-24.192-8.321-52.828,3.461-82.531C178.864,60.722,202.581,152.036,250.432,184.939
		z"/>
	<path style="fill:#BADB82;" d="M211.518,211.537c0.024,0.024,0.036,0.036,0.036,0.036s-18.253,17.4-26.645,38.877
		c-32.915-47.85-124.206-71.567-124.206-71.567c29.691-11.782,58.328-10.134,82.531-3.461
		C182.752,186.302,210.429,210.577,211.518,211.537z"/>
	<path style="fill:#BADB82;" d="M175.403,143.253c10.881,39.517,35.155,67.194,36.116,68.284
		c-1.09-0.96-28.767-25.235-68.284-36.116c0,0-54.879-51.844-73.736-105.905C123.559,88.374,175.403,143.253,175.403,143.253z"/>
</g>
<path d="M11.791,294.918c4.873-0.595,8.342-5.028,7.747-9.902c-6.762-55.411,6.103-111.588,36.226-158.184
	c2.666-4.124,1.484-9.627-2.64-12.291c-4.122-2.666-9.627-1.485-12.291,2.64C8.455,167.265-5.375,227.635,1.89,287.171
	c0.55,4.508,4.384,7.813,8.814,7.813C11.062,294.984,11.425,294.962,11.791,294.918z"/>
<path d="M406.711,309.543c0.834,0.245,1.676,0.362,2.503,0.362c3.846,0,7.391-2.515,8.527-6.392
	c17.354-59.223,1.047-123.1-42.558-166.704c-39.648-39.646-96.232-56.952-151.36-46.294c-4.821,0.933-7.972,5.596-7.041,10.416
	c0.933,4.819,5.593,7.97,10.416,7.041c49.327-9.537,99.948,5.943,135.412,41.409c39.006,39.006,53.594,96.151,38.069,149.133
	C399.299,303.224,401.999,308.162,406.711,309.543z"/>
<path d="M100.935,216.778c-4.816-0.93-9.483,2.22-10.416,7.041c-10.659,55.13,6.647,111.714,46.294,151.359
	c32.078,32.078,75.121,49.382,119.218,49.382c15.845,0,31.831-2.235,47.486-6.824c4.712-1.381,7.412-6.32,6.031-11.03
	c-1.38-4.71-6.312-7.414-11.031-6.031c-52.978,15.526-110.126,0.939-149.132-38.069c-35.465-35.465-50.945-86.087-41.409-135.412
	C108.907,222.373,105.756,217.71,100.935,216.778z"/>
<path d="M511.224,235.967c-4.736-60.704-31.089-117.881-74.203-160.996c-41.65-41.65-96.805-67.821-155.306-73.694
	c-57.689-5.791-116.118,8.254-164.529,39.552c-4.124,2.666-5.305,8.169-2.64,12.291c2.667,4.124,8.169,5.305,12.291,2.64
	c45.037-29.115,99.41-42.184,153.099-36.791c54.432,5.464,105.753,29.818,144.509,68.574
	c40.122,40.121,64.644,93.323,69.051,149.807c4.359,55.873-11.082,111.608-43.478,156.94c-2.855,3.994-1.931,9.546,2.062,12.402
	c1.567,1.119,3.373,1.657,5.162,1.657c2.772,0,5.504-1.293,7.239-3.722C499.308,355.899,515.907,296.001,511.224,235.967z"/>
<path d="M394.303,450.021c-45.336,32.394-101.07,47.837-156.944,43.475c-56.483-4.407-109.688-28.93-149.811-69.053
	c-31.216-31.216-53.093-70.296-63.269-113.013c-1.137-4.775-5.929-7.724-10.708-6.588c-4.775,1.138-7.726,5.931-6.588,10.708
	c10.938,45.92,34.449,87.922,67.992,121.465c43.117,43.117,100.295,69.472,161,74.207c6.661,0.519,13.315,0.778,19.958,0.778
	c53.224,0,105.38-16.555,148.705-47.512c3.994-2.854,4.919-8.406,2.065-12.4C403.85,448.091,398.297,447.167,394.303,450.021z"/>
<path d="M403.466,332.423c-18.995-34.94-42.358-72.425-64.1-102.846c-2.855-3.994-8.406-4.917-12.402-2.064
	c-3.993,2.855-4.918,8.407-2.062,12.402c4.599,6.436,9.293,13.224,14.022,20.268l-26.796,26.796c-3.472,3.472-3.472,9.101,0,12.571
	c1.736,1.735,4.012,2.604,6.287,2.604c2.275,0,4.55-0.868,6.287-2.604l24.196-24.198c31.827,49.382,63.531,108.05,78.22,151.768
	c-24.283-8.117-54.114-21.745-87.139-39.776l17.401-17.401c3.472-3.472,3.472-9.101,0-12.571c-3.473-3.472-9.101-3.472-12.572,0
	l-20.957,20.957c-6.176-3.529-12.438-7.184-18.788-10.985c-27.532-16.484-53.908-33.994-74.41-49.176l14.846-14.846
	c3.472-3.472,3.472-9.101,0-12.571c-3.472-3.472-9.101-3.472-12.571,0l-16.5,16.5c-7.133-5.706-13.062-10.87-17.445-15.253
	c-10.043-10.035-11.936-22.577-5.79-38.339c7.541-19.3,24.337-35.523,24.499-35.678c0.097-0.092,0.199-0.194,0.293-0.292
	c0.161-0.168,16.384-16.953,35.688-24.484c15.755-6.16,28.297-4.273,38.338,5.77c4.128,4.128,9.089,9.792,14.741,16.832
	c3.075,3.828,8.668,4.441,12.498,1.367c3.828-3.073,4.44-8.669,1.367-12.496c-6.054-7.542-11.45-13.689-16.032-18.273
	c-14.07-14.07-32.203-17.972-52.672-11.427c-42.203-32.688-64.216-115.66-64.439-116.514c-0.967-3.723-4.217-6.401-8.055-6.639
	c-3.841-0.231-7.394,2.021-8.813,5.596c-7.666,19.327-10.587,39.605-8.783,60.548c-20.502-18.23-54.204-44.594-89.392-56.869
	c-3.22-1.124-6.801-0.305-9.213,2.107c-2.412,2.412-3.231,5.993-2.107,9.213c12.275,35.189,38.641,68.893,56.87,89.394
	c-20.951-1.806-41.229,1.114-60.55,8.782c-3.574,1.418-5.829,4.972-5.593,8.809c0.236,3.837,2.913,7.088,6.634,8.056
	c0.653,0.171,65.74,17.398,103.506,50.766c1.69,1.493,3.791,2.227,5.883,2.227c2.459,0,4.908-1.015,6.666-3.003
	c3.251-3.679,2.903-9.297-0.776-12.547c-24.148-21.335-57.314-36.244-81.074-45.042c15.508-1.818,31.603-0.458,48.117,4.084
	c0.007,0.002,0.014,0.004,0.023,0.006c0.023,0.006,0.045,0.012,0.068,0.018c26.32,7.247,47.214,20.841,57.611,28.544
	c-6.553,7.544-16.184,20.162-21.858,34.685c-8.738,22.41-5.354,42.252,9.783,57.377c36.172,36.172,172.546,123.947,251.718,144.378
	c0.735,0.19,1.48,0.282,2.221,0.282c2.328,0,4.598-0.915,6.287-2.604c2.225-2.225,3.108-5.461,2.321-8.508
	C440.015,403.471,419.283,361.516,403.466,332.423z M179.874,92.597c2.431,6.555,5.329,13.837,8.7,21.462
	c13.47,30.466,28.698,53.597,45.397,69c-8.834,5.088-16.319,10.964-21.452,15.419c-7.695-10.385-21.27-31.253-28.523-57.535
	c-0.002-0.008-0.005-0.015-0.007-0.024c-0.006-0.02-0.012-0.039-0.017-0.059C179.404,124.3,178.04,108.157,179.874,92.597z
	 M167.477,147.827c3.537,12.184,8.215,23.209,13.074,32.716c-9.507-4.86-20.533-9.537-32.717-13.074
	c-7.495-7.38-41.53-42.008-61.35-80.993C125.468,106.297,160.099,140.332,167.477,147.827z"/>
</svg>